<?xml version="1.0" encoding="utf-8"?>
<!-- Generator: Adobe Illustrator 16.0.0, SVG Export Plug-In . SVG Version: 6.00 Build 0)  -->
<!DOCTYPE svg PUBLIC "-//W3C//DTD SVG 1.1//EN" "http://www.w3.org/Graphics/SVG/1.1/DTD/svg11.dtd">
<svg version="1.1" id="Layer_1" xmlns="http://www.w3.org/2000/svg" xmlns:xlink="http://www.w3.org/1999/xlink" x="0px" y="0px"
	 width="298px" height="420px" viewBox="0 0 298 420" enable-background="new 0 0 298 420" xml:space="preserve">
<path fill="#63A814" d="M27,386L0,82h298l-27,304l-122,34L27,386z"/>
<path fill="#8ACF17" d="M149,393.84l98.48-27.3L270.68,107H149V393.84z"/>
<path id="J_1_" fill="#FFFFFF" d="M55.476,145l3.33,37h142.379L190.5,305.859l-41.64,11.229l-41.548-11.203L104.655,276h-37.45
	l5.227,58.664l76.392,21.26l76.55-21.26L242.348,145H55.476z"/>
<path fill="#EBEBEB" d="M148.86,317.088l-41.548-11.203L104.655,276h-37.45l5.227,58.664L149,355.924L148.86,317.088z M58.805,182
	H149v-37H55.476L58.805,182z"/>
<path fill="#F2B632" d="M122.07,0v36h-31v20h52V0H122.07z M153.07,0v20.847L175.973,38H153.07v18h53V37.876L180.407,18h25.663V0
	H153.07z"/>
</svg>
